{
  "accessors": [
    {
      "bufferView": 2,
      "componentType": 5126,
      "count": 8775,
      "max": [
        45.35441970825195,
        21.337900161743164,
        3.676039934158325
      ],
      "min": [
        -26.43507957458496,
        -34.818870544433594,
        0.2760399878025055
      ],
      "type": "VEC3"
    },
    {
      "bufferView": 2,
      "byteOffset": 105300,
      "componentType": 5126,
      "count": 8775,
      "max": [
        0.9999933838844299,
        1.0,
        1.0
      ],
      "min": [
        -0.9999998211860657,
        -0.9999997019767761,
        -1.0
      ],
      "type": "VEC3"
    },
    {
      "bufferView": 1,
      "componentType": 5126,
      "count": 8775,
      "max": [
        0.07917000353336334,
        0.07969000190496445
      ],
      "min": [
        -0.22256000339984894,
        -0.07969000190496445
      ],
      "type": "VEC2"
    },
    {
      "bufferView": 0,
      "componentType": 5125,
      "count": 20652,
      "type": "SCALAR"
    },
    {
      "bufferView": 2,
      "byteOffset": 210600,
      "componentType": 5126,
      "count": 14498,
      "max": [
        71.4999771118164,
        15.345990180969238,
        -3.8540101051330566
      ],
      "min": [
        0.0,
        -4.145989894866943,
        -15.054010391235352
      ],
      "type": "VEC3"
    },
    {
      "bufferView": 2,
      "byteOffset": 384576,
      "componentType": 5126,
      "count": 14498,
      "max": [
        1.0,
        1.0,
        1.0
      ],
      "min": [
        -1.0,
        -0.9999937415122986,
        -1.0
      ],
      "type": "VEC3"
    },
    {
      "bufferView": 1,
      "byteOffset": 70200,
      "componentType": 5126,
      "count": 14498,
      "max": [
        0.05536000058054924,
        0.015479999594390392
      ],
      "min": [
        -0.055059999227523804,
        -0.008670000359416008
      ],
      "type": "VEC2"
    },
    {
      "bufferView": 0,
      "byteOffset": 82608,
      "componentType": 5125,
      "count": 29244,
      "type": "SCALAR"
    },
    {
      "bufferView": 2,
      "byteOffset": 558552,
      "componentType": 5126,
      "count": 8775,
      "max": [
        37.058109283447266,
        43.82754135131836,
        -0.8506500124931335
      ],
      "min": [
        -21.690889358520508,
        -28.3764591217041,
        -4.250649929046631
      ],
      "type": "VEC3"
    },
    {
      "bufferView": 2,
      "byteOffset": 663852,
      "componentType": 5126,
      "count": 8775,
      "max": [
        1.0,
        1.0,
        1.0
      ],
      "min": [
        -1.0,
        -1.0,
        -1.0
      ],
      "type": "VEC3"
    },
    {
      "bufferView": 1,
      "byteOffset": 186184,
      "componentType": 5126,
      "count": 8775,
      "max": [
        0.07917000353336334,
        0.07969000190496445
      ],
      "min": [
        -0.22256000339984894,
        -0.07969000190496445
      ],
      "type": "VEC2"
    },
    {
      "bufferView": 0,
      "byteOffset": 199584,
      "componentType": 5125,
      "count": 20652,
      "type": "SCALAR"
    },
    {
      "bufferView": 2,
      "byteOffset": 769152,
      "componentType": 5126,
      "count": 2226,
      "max": [
        71.44954681396484,
        15.318260192871094,
        -5.1192097663879395
      ],
      "min": [
        -0.05040000006556511,
        -4.173709869384766,
        -8.319210052490234
      ],
      "type": "VEC3"
    },
    {
      "bufferView": 2,
      "byteOffset": 795864,
      "componentType": 5126,
      "count": 2226,
      "max": [
        0.9994557499885559,
        0.9999985098838806,
        1.0
      ],
      "min": [
        -0.9994865655899048,
        -0.9999995827674866,
        -1.0
      ],
      "type": "VEC3"
    },
    {
      "bufferView": 1,
      "byteOffset": 256384,
      "componentType": 5126,
      "count": 2226,
      "max": [
        0.05536000058054924,
        0.015479999594390392
      ],
      "min": [
        -0.04822999984025955,
        -0.010599999688565731
      ],
      "type": "VEC2"
    },
    {
      "bufferView": 0,
      "byteOffset": 282192,
      "componentType": 5125,
      "count": 4236,
      "type": "SCALAR"
    },
    {
      "bufferView": 3,
      "componentType": 5126,
      "count": 2,
      "max": [
        10.416669845581055
      ],
      "min": [
        0.041669998317956924
      ],
      "type": "SCALAR"
    },
    {
      "bufferView": 4,
      "componentType": 5126,
      "count": 2,
      "max": [
        5.739880084991455,
        7.523190021514893,
        5.414460182189941
      ],
      "min": [
        5.739880084991455,
        7.523190021514893,
        5.414460182189941
      ],
      "type": "VEC3"
    },
    {
      "bufferView": 3,
      "byteOffset": 8,
      "componentType": 5126,
      "count": 249,
      "max": [
        10.416669845581055
      ],
      "min": [
        0.041669998317956924
      ],
      "type": "SCALAR"
    },
    {
      "bufferView": 5,
      "componentType": 5126,
      "count": 249,
      "max": [
        0.7071099877357483,
        0.7059999704360962,
        0.707040011882782,
        0.7071099877357483
      ],
      "min": [
        -0.009639999829232693,
        -0.707040011882782,
        -0.7059999704360962,
        -0.009639999829232693
      ],
      "type": "VEC4"
    },
    {
      "bufferView": 3,
      "byteOffset": 1004,
      "componentType": 5126,
      "count": 2,
      "max": [
        10.416669845581055
      ],
      "min": [
        0.041669998317956924
      ],
      "type": "SCALAR"
    },
    {
      "bufferView": 4,
      "byteOffset": 24,
      "componentType": 5126,
      "count": 2,
      "max": [
        1.0,
        1.0,
        1.0
      ],
      "min": [
        1.0,
        1.0,
        1.0
      ],
      "type": "VEC3"
    },
    {
      "bufferView": 3,
      "byteOffset": 1012,
      "componentType": 5126,
      "count": 2,
      "max": [
        10.416669845581055
      ],
      "min": [
        0.041669998317956924
      ],
      "type": "SCALAR"
    },
    {
      "bufferView": 4,
      "byteOffset": 48,
      "componentType": 5126,
      "count": 2,
      "max": [
        65.20435333251953,
        12.050049781799316,
        5.498929977416992
      ],
      "min": [
        65.20435333251953,
        12.050049781799316,
        5.498929977416992
      ],
      "type": "VEC3"
    },
    {
      "bufferView": 3,
      "byteOffset": 1020,
      "componentType": 5126,
      "count": 250,
      "max": [
        10.416669845581055
      ],
      "min": [
        0.041669998317956924
      ],
      "type": "SCALAR"
    },
    {
      "bufferView": 5,
      "byteOffset": 3984,
      "componentType": 5126,
      "count": 250,
      "max": [
        0.7071099877357483,
        0.7067599892616272,
        0.707069993019104,
        0.7071099877357483
      ],
      "min": [
        -0.007360000163316727,
        -0.707069993019104,
        -0.7067599892616272,
        -0.007360000163316727
      ],
      "type": "VEC4"
    },
    {
      "bufferView": 3,
      "byteOffset": 2020,
      "componentType": 5126,
      "count": 2,
      "max": [
        10.416669845581055
      ],
      "min": [
        0.041669998317956924
      ],
      "type": "SCALAR"
    },
    {
      "bufferView": 4,
      "byteOffset": 72,
      "componentType": 5126,
      "count": 2,
      "max": [
        1.0,
        1.0,
        1.0
      ],
      "min": [
        1.0,
        1.0,
        1.0
      ],
      "type": "VEC3"
    }
  ],
  "animations": [
    {
      "channels": [
        {
          "sampler": 0,
          "target": {
            "node": 6,
            "path": "translation"
          }
        },
        {
          "sampler": 1,
          "target": {
            "node": 6,
            "path": "rotation"
          }
        },
        {
          "sampler": 2,
          "target": {
            "node": 6,
            "path": "scale"
          }
        },
        {
          "sampler": 3,
          "target": {
            "node": 2,
            "path": "translation"
          }
        },
        {
          "sampler": 4,
          "target": {
            "node": 2,
            "path": "rotation"
          }
        },
        {
          "sampler": 5,
          "target": {
            "node": 2,
            "path": "scale"
          }
        }
      ],
      "name": "Animated gears",
      "samplers": [
        {
          "input": 16,
          "interpolation": "LINEAR",
          "output": 17
        },
        {
          "input": 18,
          "interpolation": "LINEAR",
          "output": 19
        },
        {
          "input": 20,
          "interpolation": "LINEAR",
          "output": 21
        },
        {
          "input": 22,
          "interpolation": "LINEAR",
          "output": 23
        },
        {
          "input": 24,
          "interpolation": "LINEAR",
          "output": 25
        },
        {
          "input": 26,
          "interpolation": "LINEAR",
          "output": 27
        }
      ]
    }
  ],
  "asset": {
    "extras": {
      "author": "C. Yamahata (https://sketchfab.com/cyamahat)",
      "license": "CC-BY-4.0 (http://creativecommons.org/licenses/by/4.0/)",
      "source": "https://sketchfab.com/3d-models/animated-nautilus-gears-b0248995a1304dfe8a656794ebcd797d",
      "title": "Animated nautilus gears"
    },
    "generator": "Sketchfab-12.67.0",
    "version": "2.0"
  },
  "bufferViews": [
    {
      "buffer": 0,
      "byteLength": 299136,
      "name": "floatBufferViews",
      "target": 34963
    },
    {
      "buffer": 0,
      "byteLength": 274192,
      "byteOffset": 299136,
      "byteStride": 8,
      "name": "floatBufferViews",
      "target": 34962
    },
    {
      "buffer": 0,
      "byteLength": 822576,
      "byteOffset": 573328,
      "byteStride": 12,
      "name": "floatBufferViews",
      "target": 34962
    },
    {
      "buffer": 0,
      "byteLength": 2028,
      "byteOffset": 1395904,
      "name": "floatBufferViews"
    },
    {
      "buffer": 0,
      "byteLength": 96,
      "byteOffset": 1397932,
      "byteStride": 12,
      "name": "floatBufferViews"
    },
    {
      "buffer": 0,
      "byteLength": 7984,
      "byteOffset": 1398028,
      "byteStride": 16,
      "name": "floatBufferViews"
    }
  ],
  "buffers": [
    {
      "byteLength": 1406012,
      "uri": "scene.bin"
    }
  ],
  "images": [
    {
      "uri": "textures/mtl_1_baseColor.jpeg"
    },
    {
      "uri": "textures/mtl_1_metallicRoughness.png"
    }
  ],
  "materials": [
    {
      "doubleSided": true,
      "emissiveFactor": [
        0.00014634326734111605,
        0.0016463284735560406,
        0.006751395395437069
      ],
      "name": "mtl_0",
      "pbrMetallicRoughness": {
        "baseColorFactor": [
          0.053716787586130854,
          0.058338732393658756,
          0.11224776206431974,
          1.0
        ],
        "roughnessFactor": 0.6
      }
    },
    {
      "doubleSided": true,
      "name": "mtl_1",
      "pbrMetallicRoughness": {
        "baseColorFactor": [
          0.62,
          0.62,
          0.62,
          1.0
        ],
        "baseColorTexture": {
          "index": 0
        },
        "metallicRoughnessTexture": {
          "index": 1
        },
        "roughnessFactor": 0.89
      }
    }
  ],
  "meshes": [
    {
      "name": "Nautilus_GearSolid_0",
      "primitives": [
        {
          "attributes": {
            "NORMAL": 1,
            "POSITION": 0,
            "TEXCOORD_0": 2
          },
          "indices": 3,
          "material": 1,
          "mode": 4
        }
      ]
    },
    {
      "name": "Nautilus_Bar_LowerSolid_0",
      "primitives": [
        {
          "attributes": {
            "NORMAL": 5,
            "POSITION": 4,
            "TEXCOORD_0": 6
          },
          "indices": 7,
          "material": 0,
          "mode": 4
        }
      ]
    },
    {
      "name": "Nautilus_GearSolid (2)_0",
      "primitives": [
        {
          "attributes": {
            "NORMAL": 9,
            "POSITION": 8,
            "TEXCOORD_0": 10
          },
          "indices": 11,
          "material": 1,
          "mode": 4
        }
      ]
    },
    {
      "name": "Nautilus_Bar_UpperSolid_0",
      "primitives": [
        {
          "attributes": {
            "NORMAL": 13,
            "POSITION": 12,
            "TEXCOORD_0": 14
          },
          "indices": 15,
          "material": 0,
          "mode": 4
        }
      ]
    }
  ],
  "nodes": [
    {
      "children": [
        1
      ],
      "matrix": [
        -1.0,
        6.66133814775094e-16,
        -4.4408920985006247e-16,
        0.0,
        4.440892098500626e-16,
        0.0,
        -1.0,
        0.0,
        -6.661338147750939e-16,
        -1.0,
        0.0,
        0.0,
        87.14478302001953,
        12.841095924377441,
        2.0614864465335323e-14,
        1.0
      ],
      "name": "Sketchfab_model"
    },
    {
      "children": [
        2,
        4,
        6,
        8
      ],
      "name": "Root"
    },
    {
      "children": [
        3
      ],
      "name": "Nautilus_GearSolid",
      "rotation": [
        0.7034765481948853,
        -0.07155965268611908,
        0.07155965268611908,
        0.7034765481948853
      ],
      "translation": [
        65.20435333251953,
        12.050049781799316,
        5.498929977416992
      ]
    },
    {
      "mesh": 0,
      "name": "Nautilus_GearSolid_0"
    },
    {
      "children": [
        5
      ],
      "matrix": [
        1.0,
        0.0,
        0.0,
        0.0,
        0.0,
        -0.0,
        1.0,
        0.0,
        0.0,
        -1.0,
        -0.0,
        0.0,
        0.0,
        0.0,
        0.0,
        1.0
      ],
      "name": "Nautilus_Bar_LowerSolid"
    },
    {
      "mesh": 1,
      "name": "Nautilus_Bar_LowerSolid_0"
    },
    {
      "children": [
        7
      ],
      "name": "Nautilus_GearSolid (2)",
      "rotation": [
        0.7053566575050354,
        0.049719762057065964,
        -0.049719762057065964,
        0.7053566575050354
      ],
      "translation": [
        5.739880084991455,
        7.523190021514893,
        5.414460182189941
      ]
    },
    {
      "mesh": 2,
      "name": "Nautilus_GearSolid (2)_0"
    },
    {
      "children": [
        9
      ],
      "matrix": [
        1.0,
        0.0,
        0.0,
        0.0,
        0.0,
        -0.0,
        1.0,
        0.0,
        0.0,
        -1.0,
        -0.0,
        0.0,
        0.0,
        0.0,
        0.0,
        1.0
      ],
      "name": "Nautilus_Bar_UpperSolid"
    },
    {
      "mesh": 3,
      "name": "Nautilus_Bar_UpperSolid_0"
    }
  ],
  "samplers": [
    {
      "magFilter": 9729,
      "minFilter": 9987,
      "wrapS": 33071,
      "wrapT": 33071
    },
    {
      "magFilter": 9729,
      "minFilter": 9987,
      "wrapS": 10497,
      "wrapT": 10497
    }
  ],
  "scene": 0,
  "scenes": [
    {
      "name": "Sketchfab_Scene",
      "nodes": [
        0
      ]
    }
  ],
  "textures": [
    {
      "sampler": 0,
      "source": 0
    },
    {
      "sampler": 1,
      "source": 1
    }
  ]
}
