{
    "asset" : {
        "generator" : "Khronos glTF Blender I/O v1.2.75",
        "version" : "2.0"
    },
    "extensionsUsed" : [
        "KHR_lights_punctual"
    ],
    "extensionsRequired" : [
        "KHR_lights_punctual"
    ],
    "extensions" : {
        "KHR_lights_punctual" : {
            "lights" : [
                {
                    "color" : [
                        1,
                        1,
                        1
                    ],
                    "intensity" : 90,
                    "type" : "point",
                    "name" : "Light.005"
                },
                {
                    "color" : [
                        1,
                        1,
                        1
                    ],
                    "intensity" : 90,
                    "type" : "point",
                    "name" : "Light.006"
                },
                {
                    "color" : [
                        1,
                        1,
                        1
                    ],
                    "intensity" : 90,
                    "type" : "point",
                    "name" : "Light.007"
                }
            ]
        }
    },
    "scene" : 0,
    "scenes" : [
        {
            "name" : "Scene",
            "nodes" : [
                0,
                1,
                3,
                5,
                7,
                8,
                9
            ]
        }
    ],
    "nodes" : [
        {
            "mesh" : 0,
            "name" : "Sphere.001",
            "scale" : [
                0.4833172559738159,
                0.4833172559738159,
                0.4833172559738159
            ],
            "translation" : [
                0.45798933506011963,
                0.0055723488330841064,
                -2.142436981201172
            ]
        },
        {
            "name" : "Area",
            "rotation" : [
                -0.4226182699203491,
                0,
                0,
                0.9063077569007874
            ],
            "scale" : [
                6.258617877960205,
                1,
                1
            ],
            "translation" : [
                0.2654280662536621,
                0.6784136295318604,
                -3.036233425140381
            ]
        },
        {
            "extensions" : {
                "KHR_lights_punctual" : {
                    "light" : 0
                }
            },
            "name" : "Light.006_Orientation",
            "rotation" : [
                -0.7071067690849304,
                0,
                0,
                0.7071067690849304
            ]
        },
        {
            "children" : [
                2
            ],
            "name" : "Light.006",
            "rotation" : [
                0.16907575726509094,
                0.7558803558349609,
                -0.27217137813568115,
                0.570947527885437
            ],
            "translation" : [
                1.003401517868042,
                -0.34140199422836304,
                -4.504528522491455
            ]
        },
        {
            "extensions" : {
                "KHR_lights_punctual" : {
                    "light" : 1
                }
            },
            "name" : "Light.007_Orientation",
            "rotation" : [
                -0.7071067690849304,
                0,
                0,
                0.7071067690849304
            ]
        },
        {
            "children" : [
                4
            ],
            "name" : "Light.007",
            "rotation" : [
                0.16907575726509094,
                0.7558803558349609,
                -0.27217137813568115,
                0.570947527885437
            ],
            "translation" : [
                -0.665249228477478,
                -1.2343863248825073,
                -1.6272528171539307
            ]
        },
        {
            "extensions" : {
                "KHR_lights_punctual" : {
                    "light" : 2
                }
            },
            "name" : "Light.003_Orientation",
            "rotation" : [
                -0.7071067690849304,
                0,
                0,
                0.7071067690849304
            ]
        },
        {
            "children" : [
                6
            ],
            "name" : "Light.003",
            "rotation" : [
                0.16907575726509094,
                0.7558803558349609,
                -0.27217137813568115,
                0.570947527885437
            ],
            "translation" : [
                -0.407127320766449,
                1.227818250656128,
                -1.443314790725708
            ]
        },
        {
            "mesh" : 1,
            "name" : "Curve.007"
        },
        {
            "mesh" : 2,
            "name" : "Curve.004",
            "scale" : [
                19.313762664794922,
                19.313762664794922,
                19.313762664794922
            ],
            "translation" : [
                0.7705954313278198,
                0.2420414388179779,
                -2.0599312782287598
            ]
        }
    ],
    "materials" : [
        {
            "doubleSided" : true,
            "emissiveFactor" : [
                0,
                0,
                0
            ],
            "name" : "dourado",
            "pbrMetallicRoughness" : {
                "baseColorFactor" : [
                    0.457531213760376,
                    0.29706066846847534,
                    0.10525593906641006,
                    1
                ],
                "metallicFactor" : 1,
                "roughnessFactor" : 0.16153845191001892
            }
        }
    ],
    "meshes" : [
        {
            "name" : "Sphere.001",
            "primitives" : [
                {
                    "attributes" : {
                        "POSITION" : 0,
                        "NORMAL" : 1,
                        "TEXCOORD_0" : 2
                    },
                    "indices" : 3,
                    "material" : 0
                }
            ]
        },
        {
            "name" : "Curve.007",
            "primitives" : [
                {
                    "attributes" : {
                        "POSITION" : 4,
                        "NORMAL" : 5,
                        "TEXCOORD_0" : 6
                    },
                    "indices" : 7,
                    "material" : 0
                }
            ]
        },
        {
            "name" : "Curve.001",
            "primitives" : [
                {
                    "attributes" : {
                        "POSITION" : 8,
                        "NORMAL" : 9,
                        "TEXCOORD_0" : 10
                    },
                    "indices" : 11,
                    "material" : 0
                }
            ]
        }
    ],
    "accessors" : [
        {
            "bufferView" : 0,
            "componentType" : 5126,
            "count" : 441,
            "max" : [
                9.781781074025275e-08,
                7.549790126404332e-08,
                0.9963598847389221
            ],
            "min" : [
                -0.9975742697715759,
                -0.999880313873291,
                -0.9963589310646057
            ],
            "type" : "VEC3"
        },
        {
            "bufferView" : 1,
            "componentType" : 5126,
            "count" : 441,
            "type" : "VEC3"
        },
        {
            "bufferView" : 2,
            "componentType" : 5126,
            "count" : 441,
            "type" : "VEC2"
        },
        {
            "bufferView" : 3,
            "componentType" : 5123,
            "count" : 2202,
            "type" : "SCALAR"
        },
        {
            "bufferView" : 4,
            "componentType" : 5126,
            "count" : 619,
            "max" : [
                -0.14145904779434204,
                0.0960731953382492,
                -1.5602881908416748
            ],
            "min" : [
                -1.188344955444336,
                0,
                -2.813931941986084
            ],
            "type" : "VEC3"
        },
        {
            "bufferView" : 5,
            "componentType" : 5126,
            "count" : 619,
            "type" : "VEC3"
        },
        {
            "bufferView" : 6,
            "componentType" : 5126,
            "count" : 619,
            "type" : "VEC2"
        },
        {
            "bufferView" : 7,
            "componentType" : 5123,
            "count" : 3420,
            "type" : "SCALAR"
        },
        {
            "bufferView" : 8,
            "componentType" : 5126,
            "count" : 1239,
            "max" : [
                0.025523114949464798,
                -0.012773771770298481,
                0.03786858916282654
            ],
            "min" : [
                -0.01647273823618889,
                -0.054823920130729675,
                -0.04606588929891586
            ],
            "type" : "VEC3"
        },
        {
            "bufferView" : 9,
            "componentType" : 5126,
            "count" : 1239,
            "type" : "VEC3"
        },
        {
            "bufferView" : 10,
            "componentType" : 5126,
            "count" : 1239,
            "type" : "VEC2"
        },
        {
            "bufferView" : 11,
            "componentType" : 5123,
            "count" : 5406,
            "type" : "SCALAR"
        }
    ],
    "bufferViews" : [
        {
            "buffer" : 0,
            "byteLength" : 5292,
            "byteOffset" : 0
        },
        {
            "buffer" : 0,
            "byteLength" : 5292,
            "byteOffset" : 5292
        },
        {
            "buffer" : 0,
            "byteLength" : 3528,
            "byteOffset" : 10584
        },
        {
            "buffer" : 0,
            "byteLength" : 4404,
            "byteOffset" : 14112
        },
        {
            "buffer" : 0,
            "byteLength" : 7428,
            "byteOffset" : 18516
        },
        {
            "buffer" : 0,
            "byteLength" : 7428,
            "byteOffset" : 25944
        },
        {
            "buffer" : 0,
            "byteLength" : 4952,
            "byteOffset" : 33372
        },
        {
            "buffer" : 0,
            "byteLength" : 6840,
            "byteOffset" : 38324
        },
        {
            "buffer" : 0,
            "byteLength" : 14868,
            "byteOffset" : 45164
        },
        {
            "buffer" : 0,
            "byteLength" : 14868,
            "byteOffset" : 60032
        },
        {
            "buffer" : 0,
            "byteLength" : 9912,
            "byteOffset" : 74900
        },
        {
            "buffer" : 0,
            "byteLength" : 10812,
            "byteOffset" : 84812
        }
    ],
    "buffers" : [
        {
            "byteLength" : 95624,
            "uri" : "data:application/octet-stream;base64,"
        }
    ]
}
