{
    "asset" : {
        "generator" : "Khronos glTF Blender I/O v1.2.75",
        "version" : "2.0"
    },
    "scene" : 0,
    "scenes" : [
        {
            "name" : "Scene",
            "nodes" : [
                0
            ]
        }
    ],
    "nodes" : [
        {
            "mesh" : 0,
            "name" : "Cylinder",
            "scale" : [
                1.306459903717041,
                0.3889758288860321,
                1.306459903717041
            ],
            "translation" : [
                0,
                0.22589494287967682,
                0
            ]
        }
    ],
    "materials" : [
        {
            "doubleSided" : true,
            "name" : "Material.001",
            "pbrMetallicRoughness" : {}
        },
        {
            "doubleSided" : true,
            "name" : "Material.002",
            "pbrMetallicRoughness" : {}
        }
    ],
    "meshes" : [
        {
            "name" : "Cylinder",
            "primitives" : [
                {
                    "attributes" : {
                        "POSITION" : 0,
                        "NORMAL" : 1,
                        "TEXCOORD_0" : 2
                    },
                    "indices" : 3,
                    "material" : 0
                },
                {
                    "attributes" : {
                        "POSITION" : 4,
                        "NORMAL" : 5,
                        "TEXCOORD_0" : 6
                    },
                    "indices" : 7,
                    "material" : 1
                }
            ]
        }
    ],
    "accessors" : [
        {
            "bufferView" : 0,
            "componentType" : 5126,
            "count" : 1064,
            "max" : [
                1,
                1.030051589012146,
                10.495885848999023
            ],
            "min" : [
                -1,
                -1,
                -1
            ],
            "type" : "VEC3"
        },
        {
            "bufferView" : 1,
            "componentType" : 5126,
            "count" : 1064,
            "type" : "VEC3"
        },
        {
            "bufferView" : 2,
            "componentType" : 5126,
            "count" : 1064,
            "type" : "VEC2"
        },
        {
            "bufferView" : 3,
            "componentType" : 5123,
            "count" : 2064,
            "type" : "SCALAR"
        },
        {
            "bufferView" : 4,
            "componentType" : 5126,
            "count" : 124,
            "max" : [
                0.6855042576789856,
                0.795339047908783,
                -0.7266861200332642
            ],
            "min" : [
                -0.6855042576789856,
                -0.5807428956031799,
                -10.495885848999023
            ],
            "type" : "VEC3"
        },
        {
            "bufferView" : 5,
            "componentType" : 5126,
            "count" : 124,
            "type" : "VEC3"
        },
        {
            "bufferView" : 6,
            "componentType" : 5126,
            "count" : 124,
            "type" : "VEC2"
        },
        {
            "bufferView" : 7,
            "componentType" : 5123,
            "count" : 240,
            "type" : "SCALAR"
        }
    ],
    "bufferViews" : [
        {
            "buffer" : 0,
            "byteLength" : 12768,
            "byteOffset" : 0
        },
        {
            "buffer" : 0,
            "byteLength" : 12768,
            "byteOffset" : 12768
        },
        {
            "buffer" : 0,
            "byteLength" : 8512,
            "byteOffset" : 25536
        },
        {
            "buffer" : 0,
            "byteLength" : 4128,
            "byteOffset" : 34048
        },
        {
            "buffer" : 0,
            "byteLength" : 1488,
            "byteOffset" : 38176
        },
        {
            "buffer" : 0,
            "byteLength" : 1488,
            "byteOffset" : 39664
        },
        {
            "buffer" : 0,
            "byteLength" : 992,
            "byteOffset" : 41152
        },
        {
            "buffer" : 0,
            "byteLength" : 480,
            "byteOffset" : 42144
        }
    ],
    "buffers" : [
        {
            "byteLength" : 42624,
            "uri" : "data:application/octet-stream;base64,"
        }
    ]
}
