{
    "asset" : {
        "generator" : "Khronos glTF Blender I/O v1.2.75",
        "version" : "2.0"
    },
    "scene" : 0,
    "scenes" : [
        {
            "name" : "Scene",
            "nodes" : [
                0,
                1,
                2
            ]
        }
    ],
    "nodes" : [
        {
            "mesh" : 0,
            "name" : "Curve.003",
            "scale" : [
                15.189065933227539,
                15.189065933227539,
                15.189065933227539
            ],
            "translation" : [
                0.1620197594165802,
                2.044558048248291,
                0
            ]
        },
        {
            "mesh" : 1,
            "name" : "Curve.005",
            "scale" : [
                15.189065933227539,
                15.189065933227539,
                15.189065933227539
            ],
            "translation" : [
                -1.1382309198379517,
                2.219182014465332,
                0
            ]
        },
        {
            "mesh" : 2,
            "name" : "Curve.006",
            "scale" : [
                15.189065933227539,
                15.189065933227539,
                15.189065933227539
            ],
            "translation" : [
                -0.22837230563163757,
                2.0760624408721924,
                0
            ]
        }
    ],
    "materials" : [
        {
            "doubleSided" : true,
            "emissiveFactor" : [
                0,
                0,
                0
            ],
            "name" : "Material azul",
            "pbrMetallicRoughness" : {
                "baseColorFactor" : [
                    0.004156739450991154,
                    0.009141653776168823,
                    0.06371301412582397,
                    1
                ],
                "metallicFactor" : 0,
                "roughnessFactor" : 0.8164556622505188
            }
        }
    ],
    "meshes" : [
        {
            "name" : "Curve.004",
            "primitives" : [
                {
                    "attributes" : {
                        "POSITION" : 0,
                        "NORMAL" : 1,
                        "TEXCOORD_0" : 2
                    },
                    "indices" : 3,
                    "material" : 0
                }
            ]
        },
        {
            "name" : "Curve.005",
            "primitives" : [
                {
                    "attributes" : {
                        "POSITION" : 4,
                        "NORMAL" : 5,
                        "TEXCOORD_0" : 6
                    },
                    "indices" : 7,
                    "material" : 0
                }
            ]
        },
        {
            "name" : "Curve.006",
            "primitives" : [
                {
                    "attributes" : {
                        "POSITION" : 8,
                        "NORMAL" : 9,
                        "TEXCOORD_0" : 10
                    },
                    "indices" : 11,
                    "material" : 0
                }
            ]
        }
    ],
    "accessors" : [
        {
            "bufferView" : 0,
            "componentType" : 5126,
            "count" : 56,
            "max" : [
                0.026423990726470947,
                0.04616405814886093,
                0
            ],
            "min" : [
                -0.017730027437210083,
                -0.03768876940011978,
                0
            ],
            "type" : "VEC3"
        },
        {
            "bufferView" : 1,
            "componentType" : 5126,
            "count" : 56,
            "type" : "VEC3"
        },
        {
            "bufferView" : 2,
            "componentType" : 5126,
            "count" : 56,
            "type" : "VEC2"
        },
        {
            "bufferView" : 3,
            "componentType" : 5123,
            "count" : 156,
            "type" : "SCALAR"
        },
        {
            "bufferView" : 4,
            "componentType" : 5126,
            "count" : 143,
            "max" : [
                0.033709555864334106,
                0.03460557013750076,
                0
            ],
            "min" : [
                -0.024717802181839943,
                -0.035361066460609436,
                0
            ],
            "type" : "VEC3"
        },
        {
            "bufferView" : 5,
            "componentType" : 5126,
            "count" : 143,
            "type" : "VEC3"
        },
        {
            "bufferView" : 6,
            "componentType" : 5126,
            "count" : 143,
            "type" : "VEC2"
        },
        {
            "bufferView" : 7,
            "componentType" : 5123,
            "count" : 423,
            "type" : "SCALAR"
        },
        {
            "bufferView" : 8,
            "componentType" : 5126,
            "count" : 29,
            "max" : [
                0.007978111505508423,
                0.027249537408351898,
                0
            ],
            "min" : [
                -0.018436932936310768,
                -0.022935807704925537,
                0
            ],
            "type" : "VEC3"
        },
        {
            "bufferView" : 9,
            "componentType" : 5126,
            "count" : 29,
            "type" : "VEC3"
        },
        {
            "bufferView" : 10,
            "componentType" : 5126,
            "count" : 29,
            "type" : "VEC2"
        },
        {
            "bufferView" : 11,
            "componentType" : 5123,
            "count" : 81,
            "type" : "SCALAR"
        }
    ],
    "bufferViews" : [
        {
            "buffer" : 0,
            "byteLength" : 672,
            "byteOffset" : 0
        },
        {
            "buffer" : 0,
            "byteLength" : 672,
            "byteOffset" : 672
        },
        {
            "buffer" : 0,
            "byteLength" : 448,
            "byteOffset" : 1344
        },
        {
            "buffer" : 0,
            "byteLength" : 312,
            "byteOffset" : 1792
        },
        {
            "buffer" : 0,
            "byteLength" : 1716,
            "byteOffset" : 2104
        },
        {
            "buffer" : 0,
            "byteLength" : 1716,
            "byteOffset" : 3820
        },
        {
            "buffer" : 0,
            "byteLength" : 1144,
            "byteOffset" : 5536
        },
        {
            "buffer" : 0,
            "byteLength" : 846,
            "byteOffset" : 6680
        },
        {
            "buffer" : 0,
            "byteLength" : 348,
            "byteOffset" : 7528
        },
        {
            "buffer" : 0,
            "byteLength" : 348,
            "byteOffset" : 7876
        },
        {
            "buffer" : 0,
            "byteLength" : 232,
            "byteOffset" : 8224
        },
        {
            "buffer" : 0,
            "byteLength" : 162,
            "byteOffset" : 8456
        }
    ],
    "buffers" : [
        {
            "byteLength" : 8620,
            "uri" : "data:application/octet-stream;base64,"
        }
    ]
}
