{
    "asset" : {
        "generator" : "Khronos glTF Blender I/O v1.2.75",
        "version" : "2.0"
    },
    "extensionsUsed" : [
        "KHR_lights_punctual"
    ],
    "extensionsRequired" : [
        "KHR_lights_punctual"
    ],
    "extensions" : {
        "KHR_lights_punctual" : {
            "lights" : [
                {
                    "color" : [
                        1,
                        1,
                        1
                    ],
                    "intensity" : 90,
                    "type" : "point",
                    "name" : "Light.005"
                },
                {
                    "color" : [
                        1,
                        1,
                        1
                    ],
                    "intensity" : 90,
                    "type" : "point",
                    "name" : "Light.006"
                },
                {
                    "color" : [
                        1,
                        1,
                        1
                    ],
                    "intensity" : 90,
                    "type" : "point",
                    "name" : "Light.007"
                }
            ]
        }
    },
    "scene" : 0,
    "scenes" : [
        {
            "name" : "Scene",
            "nodes" : [
                0,
                1,
                2,
                4,
                6,
                8
            ]
        }
    ],
    "nodes" : [
        {
            "name" : "Area",
            "rotation" : [
                -0.4226182699203491,
                0,
                0,
                0.9063077569007874
            ],
            "scale" : [
                6.258617877960205,
                1,
                1
            ],
            "translation" : [
                0.2654280662536621,
                0.6784136295318604,
                -3.036233425140381
            ]
        },
        {
            "mesh" : 0,
            "name" : "Plane.001",
            "rotation" : [
                0,
                -1,
                0,
                7.549790126404332e-08
            ],
            "scale" : [
                1.0661664009094238,
                1,
                -0.09895709902048111
            ],
            "translation" : [
                0.5211164355278015,
                0.18018175661563873,
                -2.078737258911133
            ]
        },
        {
            "mesh" : 1,
            "name" : "Plane.002",
            "rotation" : [
                0,
                -0.7071067690849304,
                0,
                0.7071068286895752
            ],
            "scale" : [
                1.0661664009094238,
                1,
                -0.09744245558977127
            ],
            "translation" : [
                0.5216886401176453,
                0.18018175661563873,
                -2.0779166221618652
            ]
        },
        {
            "extensions" : {
                "KHR_lights_punctual" : {
                    "light" : 0
                }
            },
            "name" : "Light.006_Orientation",
            "rotation" : [
                -0.7071067690849304,
                0,
                0,
                0.7071067690849304
            ]
        },
        {
            "children" : [
                3
            ],
            "name" : "Light.006",
            "rotation" : [
                0.16907575726509094,
                0.7558803558349609,
                -0.27217137813568115,
                0.570947527885437
            ],
            "translation" : [
                1.003401517868042,
                -0.34140199422836304,
                -4.504528522491455
            ]
        },
        {
            "extensions" : {
                "KHR_lights_punctual" : {
                    "light" : 1
                }
            },
            "name" : "Light.007_Orientation",
            "rotation" : [
                -0.7071067690849304,
                0,
                0,
                0.7071067690849304
            ]
        },
        {
            "children" : [
                5
            ],
            "name" : "Light.007",
            "rotation" : [
                0.16907575726509094,
                0.7558803558349609,
                -0.27217137813568115,
                0.570947527885437
            ],
            "translation" : [
                -0.665249228477478,
                -1.2343863248825073,
                -1.6272528171539307
            ]
        },
        {
            "extensions" : {
                "KHR_lights_punctual" : {
                    "light" : 2
                }
            },
            "name" : "Light.003_Orientation",
            "rotation" : [
                -0.7071067690849304,
                0,
                0,
                0.7071067690849304
            ]
        },
        {
            "children" : [
                7
            ],
            "name" : "Light.003",
            "rotation" : [
                0.16907575726509094,
                0.7558803558349609,
                -0.27217137813568115,
                0.570947527885437
            ],
            "translation" : [
                -0.407127320766449,
                1.227818250656128,
                -1.443314790725708
            ]
        }
    ],
    "materials" : [
        {
            "doubleSided" : true,
            "emissiveFactor" : [
                0,
                0,
                0
            ],
            "name" : "dourado",
            "pbrMetallicRoughness" : {
                "baseColorFactor" : [
                    0.457531213760376,
                    0.29706066846847534,
                    0.10525593906641006,
                    1
                ],
                "metallicFactor" : 1,
                "roughnessFactor" : 0.16153845191001892
            }
        },
        {
            "doubleSided" : true,
            "emissiveFactor" : [
                0,
                0,
                0
            ],
            "name" : "vermelho metalico",
            "pbrMetallicRoughness" : {
                "baseColorFactor" : [
                    0.17335332930088043,
                    0.009643393568694592,
                    0,
                    1
                ],
                "metallicFactor" : 1,
                "roughnessFactor" : 0.25776398181915283
            }
        }
    ],
    "meshes" : [
        {
            "name" : "Plane.001",
            "primitives" : [
                {
                    "attributes" : {
                        "POSITION" : 0,
                        "NORMAL" : 1,
                        "TEXCOORD_0" : 2,
                        "TEXCOORD_1" : 3
                    },
                    "indices" : 4,
                    "material" : 0
                }
            ]
        },
        {
            "name" : "Plane.002",
            "primitives" : [
                {
                    "attributes" : {
                        "POSITION" : 5,
                        "NORMAL" : 6,
                        "TEXCOORD_0" : 7
                    },
                    "indices" : 8,
                    "material" : 1
                }
            ]
        }
    ],
    "accessors" : [
        {
            "bufferView" : 0,
            "componentType" : 5126,
            "count" : 1113,
            "max" : [
                0.11756223440170288,
                0.12054196745157242,
                10.103947639465332
            ],
            "min" : [
                -0.11863556504249573,
                -0.004737307317554951,
                -1.2921791076660156
            ],
            "type" : "VEC3"
        },
        {
            "bufferView" : 1,
            "componentType" : 5126,
            "count" : 1113,
            "type" : "VEC3"
        },
        {
            "bufferView" : 2,
            "componentType" : 5126,
            "count" : 1113,
            "type" : "VEC2"
        },
        {
            "bufferView" : 3,
            "componentType" : 5126,
            "count" : 1113,
            "type" : "VEC2"
        },
        {
            "bufferView" : 4,
            "componentType" : 5123,
            "count" : 1959,
            "type" : "SCALAR"
        },
        {
            "bufferView" : 5,
            "componentType" : 5126,
            "count" : 27,
            "max" : [
                0,
                0.10765691846609116,
                1.2921788692474365
            ],
            "min" : [
                -0.937875509262085,
                -0.004736633040010929,
                -1.2921788692474365
            ],
            "type" : "VEC3"
        },
        {
            "bufferView" : 6,
            "componentType" : 5126,
            "count" : 27,
            "type" : "VEC3"
        },
        {
            "bufferView" : 7,
            "componentType" : 5126,
            "count" : 27,
            "type" : "VEC2"
        },
        {
            "bufferView" : 8,
            "componentType" : 5123,
            "count" : 39,
            "type" : "SCALAR"
        }
    ],
    "bufferViews" : [
        {
            "buffer" : 0,
            "byteLength" : 13356,
            "byteOffset" : 0
        },
        {
            "buffer" : 0,
            "byteLength" : 13356,
            "byteOffset" : 13356
        },
        {
            "buffer" : 0,
            "byteLength" : 8904,
            "byteOffset" : 26712
        },
        {
            "buffer" : 0,
            "byteLength" : 8904,
            "byteOffset" : 35616
        },
        {
            "buffer" : 0,
            "byteLength" : 3918,
            "byteOffset" : 44520
        },
        {
            "buffer" : 0,
            "byteLength" : 324,
            "byteOffset" : 48440
        },
        {
            "buffer" : 0,
            "byteLength" : 324,
            "byteOffset" : 48764
        },
        {
            "buffer" : 0,
            "byteLength" : 216,
            "byteOffset" : 49088
        },
        {
            "buffer" : 0,
            "byteLength" : 78,
            "byteOffset" : 49304
        }
    ],
    "buffers" : [
        {
            "byteLength" : 49384,
            "uri" : "data:application/octet-stream;base64,"
        }
    ]
}
