{
    "asset" : {
        "generator" : "Khronos glTF Blender I/O v1.2.75",
        "version" : "2.0"
    },
    "extensionsUsed" : [
        "KHR_lights_punctual"
    ],
    "extensionsRequired" : [
        "KHR_lights_punctual"
    ],
    "extensions" : {
        "KHR_lights_punctual" : {
            "lights" : [
                {
                    "color" : [
                        1,
                        1,
                        1
                    ],
                    "intensity" : 200,
                    "type" : "point",
                    "name" : "Light.009"
                },
                {
                    "color" : [
                        1,
                        1,
                        1
                    ],
                    "intensity" : 500,
                    "type" : "point",
                    "name" : "Light.010"
                },
                {
                    "color" : [
                        1,
                        1,
                        1
                    ],
                    "intensity" : 100,
                    "type" : "point",
                    "name" : "Light.001"
                }
            ]
        }
    },
    "scene" : 0,
    "scenes" : [
        {
            "name" : "Scene",
            "nodes" : [
                0,
                1,
                2,
                3,
                4,
                5,
                6,
                7,
                8
            ]
        }
    ],
    "nodes" : [
        {
            "mesh" : 0,
            "name" : "Plane.033",
            "rotation" : [
                0,
                0,
                -1,
                7.549790126404332e-08
            ],
            "scale" : [
                1.0661664009094238,
                -0.09895709902048111,
                1
            ],
            "translation" : [
                -0.0122833251953125,
                0.0007433891296386719,
                0.18018175661563873
            ]
        },
        {
            "mesh" : 1,
            "name" : "Plane.035",
            "rotation" : [
                0,
                0,
                -0.7071067690849304,
                0.7071068286895752
            ],
            "scale" : [
                1.0661664009094238,
                -0.09744245558977127,
                1
            ],
            "translation" : [
                -0.01171112060546875,
                -7.748603820800781e-05,
                0.18018175661563873
            ]
        },
        {
            "mesh" : 2,
            "name" : "Plane.036",
            "rotation" : [
                0,
                0,
                0.3826834261417389,
                0.9238795638084412
            ],
            "scale" : [
                0.8127550482749939,
                -0.07232192903757095,
                0.2760753035545349
            ],
            "translation" : [
                -0.011737823486328125,
                0.0007162094116210938,
                0.15833398699760437
            ]
        },
        {
            "mesh" : 3,
            "name" : "Plane.037",
            "rotation" : [
                0,
                0,
                -0.9238795042037964,
                0.38268354535102844
            ],
            "scale" : [
                0.8127549886703491,
                -0.07232192158699036,
                0.2760753035545349
            ],
            "translation" : [
                -0.011682510375976562,
                0.0007710456848144531,
                0.15833398699760437
            ]
        },
        {
            "mesh" : 4,
            "name" : "Plane.038",
            "rotation" : [
                0,
                0,
                0.9238795042037964,
                0.38268354535102844
            ],
            "scale" : [
                0.8127549886703491,
                -0.07232192158699036,
                0.2760753035545349
            ],
            "translation" : [
                -0.011682510375976562,
                0.0007162094116210938,
                0.15833398699760437
            ]
        },
        {
            "mesh" : 5,
            "name" : "Plane.039",
            "rotation" : [
                0,
                0,
                -0.3826834261417389,
                0.9238795638084412
            ],
            "scale" : [
                0.8127550482749939,
                -0.07232192903757095,
                0.2760753035545349
            ],
            "translation" : [
                -0.011737823486328125,
                0.0007710456848144531,
                0.15833398699760437
            ]
        },
        {
            "extensions" : {
                "KHR_lights_punctual" : {
                    "light" : 0
                }
            },
            "name" : "Light.009",
            "rotation" : [
                0.16907575726509094,
                0.27217137813568115,
                0.7558803558349609,
                0.570947527885437
            ],
            "translation" : [
                1.122101902961731,
                1.2812738418579102,
                0.9820488691329956
            ]
        },
        {
            "extensions" : {
                "KHR_lights_punctual" : {
                    "light" : 1
                }
            },
            "name" : "Light.001",
            "rotation" : [
                0.16907575726509094,
                0.27217137813568115,
                0.7558803558349609,
                0.570947527885437
            ],
            "translation" : [
                -1.1806154251098633,
                -0.6012032628059387,
                0.34599724411964417
            ]
        },
        {
            "extensions" : {
                "KHR_lights_punctual" : {
                    "light" : 2
                }
            },
            "name" : "Light.002",
            "rotation" : [
                0.16907575726509094,
                0.27217137813568115,
                0.7558803558349609,
                0.570947527885437
            ],
            "translation" : [
                -0.015829242765903473,
                0.013508498668670654,
                1.3108347654342651
            ]
        }
    ],
    "materials" : [
        {
            "doubleSided" : true,
            "emissiveFactor" : [
                0,
                0,
                0
            ],
            "name" : "dourado",
            "pbrMetallicRoughness" : {
                "baseColorFactor" : [
                    0.457531213760376,
                    0.29706066846847534,
                    0.10525593906641006,
                    1
                ],
                "metallicFactor" : 1,
                "roughnessFactor" : 0.16153845191001892
            }
        },
        {
            "doubleSided" : true,
            "emissiveFactor" : [
                0,
                0,
                0
            ],
            "name" : "vermelho metalico",
            "pbrMetallicRoughness" : {
                "baseColorFactor" : [
                    0.17335332930088043,
                    0.009643393568694592,
                    0,
                    1
                ],
                "metallicFactor" : 1,
                "roughnessFactor" : 0.25776398181915283
            }
        },
        {
            "doubleSided" : true,
            "emissiveFactor" : [
                0,
                0,
                0
            ],
            "name" : "marrom",
            "pbrMetallicRoughness" : {
                "baseColorFactor" : [
                    0.017379634082317352,
                    0.010444493032991886,
                    0.003208037232980132,
                    1
                ],
                "metallicFactor" : 0.5652173757553101,
                "roughnessFactor" : 0.22049689292907715
            }
        }
    ],
    "meshes" : [
        {
            "name" : "Plane.033",
            "primitives" : [
                {
                    "attributes" : {
                        "POSITION" : 0,
                        "NORMAL" : 1,
                        "TEXCOORD_0" : 2,
                        "TEXCOORD_1" : 3
                    },
                    "indices" : 4,
                    "material" : 0
                }
            ]
        },
        {
            "name" : "Plane.035",
            "primitives" : [
                {
                    "attributes" : {
                        "POSITION" : 5,
                        "NORMAL" : 6,
                        "TEXCOORD_0" : 7
                    },
                    "indices" : 8,
                    "material" : 1
                }
            ]
        },
        {
            "name" : "Plane.036",
            "primitives" : [
                {
                    "attributes" : {
                        "POSITION" : 9,
                        "NORMAL" : 10,
                        "TANGENT" : 11,
                        "TEXCOORD_0" : 12
                    },
                    "indices" : 13,
                    "material" : 2
                }
            ]
        },
        {
            "name" : "Plane.037",
            "primitives" : [
                {
                    "attributes" : {
                        "POSITION" : 14,
                        "NORMAL" : 15,
                        "TANGENT" : 16,
                        "TEXCOORD_0" : 17
                    },
                    "indices" : 13,
                    "material" : 2
                }
            ]
        },
        {
            "name" : "Plane.038",
            "primitives" : [
                {
                    "attributes" : {
                        "POSITION" : 18,
                        "NORMAL" : 19,
                        "TANGENT" : 20,
                        "TEXCOORD_0" : 21
                    },
                    "indices" : 13,
                    "material" : 2
                }
            ]
        },
        {
            "name" : "Plane.039",
            "primitives" : [
                {
                    "attributes" : {
                        "POSITION" : 22,
                        "NORMAL" : 23,
                        "TANGENT" : 24,
                        "TEXCOORD_0" : 25
                    },
                    "indices" : 13,
                    "material" : 2
                }
            ]
        }
    ],
    "accessors" : [
        {
            "bufferView" : 0,
            "componentType" : 5126,
            "count" : 1153,
            "max" : [
                0.9401727914810181,
                1.2921791076660156,
                0.12054196745157242
            ],
            "min" : [
                -0.9384942054748535,
                -10.103947639465332,
                -0.0047540562227368355
            ],
            "type" : "VEC3"
        },
        {
            "bufferView" : 1,
            "componentType" : 5126,
            "count" : 1153,
            "type" : "VEC3"
        },
        {
            "bufferView" : 2,
            "componentType" : 5126,
            "count" : 1153,
            "type" : "VEC2"
        },
        {
            "bufferView" : 3,
            "componentType" : 5126,
            "count" : 1153,
            "type" : "VEC2"
        },
        {
            "bufferView" : 4,
            "componentType" : 5123,
            "count" : 2013,
            "type" : "SCALAR"
        },
        {
            "bufferView" : 5,
            "componentType" : 5126,
            "count" : 27,
            "max" : [
                0,
                1.2921788692474365,
                0.10765691846609116
            ],
            "min" : [
                -0.937875509262085,
                -1.2921788692474365,
                -0.004736633040010929
            ],
            "type" : "VEC3"
        },
        {
            "bufferView" : 6,
            "componentType" : 5126,
            "count" : 27,
            "type" : "VEC3"
        },
        {
            "bufferView" : 7,
            "componentType" : 5126,
            "count" : 27,
            "type" : "VEC2"
        },
        {
            "bufferView" : 8,
            "componentType" : 5123,
            "count" : 39,
            "type" : "SCALAR"
        },
        {
            "bufferView" : 9,
            "componentType" : 5126,
            "count" : 15,
            "max" : [
                0,
                1.2921788692474365,
                0.10765691846609116
            ],
            "min" : [
                -0.9553166627883911,
                -1.2921788692474365,
                -0.004837252199649811
            ],
            "type" : "VEC3"
        },
        {
            "bufferView" : 10,
            "componentType" : 5126,
            "count" : 15,
            "type" : "VEC3"
        },
        {
            "bufferView" : 11,
            "componentType" : 5126,
            "count" : 15,
            "type" : "VEC4"
        },
        {
            "bufferView" : 12,
            "componentType" : 5126,
            "count" : 15,
            "type" : "VEC2"
        },
        {
            "bufferView" : 13,
            "componentType" : 5123,
            "count" : 15,
            "type" : "SCALAR"
        },
        {
            "bufferView" : 14,
            "componentType" : 5126,
            "count" : 15,
            "max" : [
                0,
                1.2921788692474365,
                0.10765691846609116
            ],
            "min" : [
                -0.9553166627883911,
                -1.2921788692474365,
                -0.004837252199649811
            ],
            "type" : "VEC3"
        },
        {
            "bufferView" : 15,
            "componentType" : 5126,
            "count" : 15,
            "type" : "VEC3"
        },
        {
            "bufferView" : 16,
            "componentType" : 5126,
            "count" : 15,
            "type" : "VEC4"
        },
        {
            "bufferView" : 17,
            "componentType" : 5126,
            "count" : 15,
            "type" : "VEC2"
        },
        {
            "bufferView" : 18,
            "componentType" : 5126,
            "count" : 15,
            "max" : [
                0,
                1.2921788692474365,
                0.10765691846609116
            ],
            "min" : [
                -0.9553166627883911,
                -1.2921788692474365,
                -0.004837252199649811
            ],
            "type" : "VEC3"
        },
        {
            "bufferView" : 19,
            "componentType" : 5126,
            "count" : 15,
            "type" : "VEC3"
        },
        {
            "bufferView" : 20,
            "componentType" : 5126,
            "count" : 15,
            "type" : "VEC4"
        },
        {
            "bufferView" : 21,
            "componentType" : 5126,
            "count" : 15,
            "type" : "VEC2"
        },
        {
            "bufferView" : 22,
            "componentType" : 5126,
            "count" : 15,
            "max" : [
                0,
                1.2921788692474365,
                0.10765691846609116
            ],
            "min" : [
                -0.9553166627883911,
                -1.2921788692474365,
                -0.004837252199649811
            ],
            "type" : "VEC3"
        },
        {
            "bufferView" : 23,
            "componentType" : 5126,
            "count" : 15,
            "type" : "VEC3"
        },
        {
            "bufferView" : 24,
            "componentType" : 5126,
            "count" : 15,
            "type" : "VEC4"
        },
        {
            "bufferView" : 25,
            "componentType" : 5126,
            "count" : 15,
            "type" : "VEC2"
        }
    ],
    "bufferViews" : [
        {
            "buffer" : 0,
            "byteLength" : 13836,
            "byteOffset" : 0
        },
        {
            "buffer" : 0,
            "byteLength" : 13836,
            "byteOffset" : 13836
        },
        {
            "buffer" : 0,
            "byteLength" : 9224,
            "byteOffset" : 27672
        },
        {
            "buffer" : 0,
            "byteLength" : 9224,
            "byteOffset" : 36896
        },
        {
            "buffer" : 0,
            "byteLength" : 4026,
            "byteOffset" : 46120
        },
        {
            "buffer" : 0,
            "byteLength" : 324,
            "byteOffset" : 50148
        },
        {
            "buffer" : 0,
            "byteLength" : 324,
            "byteOffset" : 50472
        },
        {
            "buffer" : 0,
            "byteLength" : 216,
            "byteOffset" : 50796
        },
        {
            "buffer" : 0,
            "byteLength" : 78,
            "byteOffset" : 51012
        },
        {
            "buffer" : 0,
            "byteLength" : 180,
            "byteOffset" : 51092
        },
        {
            "buffer" : 0,
            "byteLength" : 180,
            "byteOffset" : 51272
        },
        {
            "buffer" : 0,
            "byteLength" : 240,
            "byteOffset" : 51452
        },
        {
            "buffer" : 0,
            "byteLength" : 120,
            "byteOffset" : 51692
        },
        {
            "buffer" : 0,
            "byteLength" : 30,
            "byteOffset" : 51812
        },
        {
            "buffer" : 0,
            "byteLength" : 180,
            "byteOffset" : 51844
        },
        {
            "buffer" : 0,
            "byteLength" : 180,
            "byteOffset" : 52024
        },
        {
            "buffer" : 0,
            "byteLength" : 240,
            "byteOffset" : 52204
        },
        {
            "buffer" : 0,
            "byteLength" : 120,
            "byteOffset" : 52444
        },
        {
            "buffer" : 0,
            "byteLength" : 180,
            "byteOffset" : 52564
        },
        {
            "buffer" : 0,
            "byteLength" : 180,
            "byteOffset" : 52744
        },
        {
            "buffer" : 0,
            "byteLength" : 240,
            "byteOffset" : 52924
        },
        {
            "buffer" : 0,
            "byteLength" : 120,
            "byteOffset" : 53164
        },
        {
            "buffer" : 0,
            "byteLength" : 180,
            "byteOffset" : 53284
        },
        {
            "buffer" : 0,
            "byteLength" : 180,
            "byteOffset" : 53464
        },
        {
            "buffer" : 0,
            "byteLength" : 240,
            "byteOffset" : 53644
        },
        {
            "buffer" : 0,
            "byteLength" : 120,
            "byteOffset" : 53884
        }
    ],
    "buffers" : [
        {
            "byteLength" : 54004,
            "uri" : "data:application/octet-stream;base64,"
        }
    ]
}
